<?xml version="1.0" encoding="utf-8"?>
<!-- Generator: Adobe Illustrator 15.1.0, SVG Export Plug-In . SVG Version: 6.00 Build 0)  -->
<!DOCTYPE svg PUBLIC "-//W3C//DTD SVG 1.1//EN" "http://www.w3.org/Graphics/SVG/1.1/DTD/svg11.dtd">
<svg version="1.1"
	 id="svg24" xmlns:sodipodi="http://sodipodi.sourceforge.net/DTD/sodipodi-0.dtd" xmlns:inkscape="http://www.inkscape.org/namespaces/inkscape" sodipodi:docname="loader-outline.svg" xmlns:svg="http://www.w3.org/2000/svg" inkscape:version="1.1 (c4e8f9e, 2021-05-24)"
	 xmlns="http://www.w3.org/2000/svg" xmlns:xlink="http://www.w3.org/1999/xlink" x="0px" y="0px" width="450px" height="450px"
	 viewBox="0 0 450 450" style="enable-background:new 0 0 450 450;" xml:space="preserve">
<g id="g22">
	<g id="g20">
		<path id="path4" d="M225,37.5c-10.36,0-18.75,8.39-18.75,18.75v37.5c0,10.36,8.39,18.75,18.75,18.75
			c10.36,0,18.75-8.39,18.75-18.75v-37.5C243.75,45.89,235.36,37.5,225,37.5z"/>
		<path id="path6" d="M393.75,206.25h-37.5c-10.36,0-18.75,8.39-18.75,18.75c0,10.36,8.39,18.75,18.75,18.75h37.5
			c10.36,0,18.75-8.39,18.75-18.75C412.5,214.64,404.11,206.25,393.75,206.25z"/>
		<path id="path8" d="M112.5,225c0-10.36-8.39-18.75-18.75-18.75h-37.5c-10.36,0-18.75,8.39-18.75,18.75
			c0,10.36,8.39,18.75,18.75,18.75h37.5C104.11,243.75,112.5,235.36,112.5,225z"/>
		<path id="path10" d="M116.62,93.75c-7.61-7.2-19.62-6.86-26.81,0.75s-6.86,19.62,0.75,26.81l27,26.06
			c3.66,3.54,8.6,5.43,13.69,5.25c5.1-0.02,9.98-2.12,13.5-5.81c7.27-7.31,7.27-19.12,0-26.44L116.62,93.75z"/>
		<path id="path12" d="M318.75,152.62c4.83-0.02,9.46-1.9,12.94-5.25l27-26.06c7.16-7.48,6.9-19.35-0.58-26.51
			c-6.81-6.52-17.39-6.97-24.73-1.05l-27,26.62c-7.27,7.31-7.27,19.12,0,26.44C309.62,150.24,314.04,152.31,318.75,152.62z"/>
		<path id="path14" d="M225,337.5c-10.36,0-18.75,8.39-18.75,18.75v37.5c0,10.36,8.39,18.75,18.75,18.75
			c10.36,0,18.75-8.39,18.75-18.75v-37.5C243.75,345.89,235.36,337.5,225,337.5z"/>
		<path id="path16" d="M332.44,302.62c-7.46-7.2-19.33-6.99-26.53,0.47s-6.99,19.33,0.47,26.53l27,26.62
			c3.48,3.35,8.11,5.23,12.94,5.25c5.08,0.03,9.95-2,13.5-5.62c7.35-7.29,7.4-19.16,0.11-26.52c-0.04-0.04-0.07-0.07-0.11-0.11
			L332.44,302.62z"/>
		<path id="path18" d="M117.56,302.62l-27,26.06c-7.35,7.29-7.4,19.16-0.11,26.52c0.04,0.04,0.07,0.07,0.11,0.11
			c3.55,3.62,8.42,5.65,13.5,5.62c4.62,0.04,9.1-1.63,12.56-4.69l27-26.06c7.46-7.2,7.67-19.08,0.47-26.53
			c-7.2-7.45-19.08-7.67-26.53-0.47l0,0V302.62z"/>
	</g>
</g>
</svg>
