<?xml version="1.0" encoding="utf-8"?>
<!-- Generator: Adobe Illustrator 15.1.0, SVG Export Plug-In . SVG Version: 6.00 Build 0)  -->
<!DOCTYPE svg PUBLIC "-//W3C//DTD SVG 1.1//EN" "http://www.w3.org/Graphics/SVG/1.1/DTD/svg11.dtd">
<svg version="1.1" id="レイヤー_1" xmlns="http://www.w3.org/2000/svg" xmlns:xlink="http://www.w3.org/1999/xlink" x="0px"
	 y="0px" width="450px" height="450px" viewBox="0 0 450 450" style="enable-background:new 0 0 450 450;" xml:space="preserve">
<g>
	<path d="M356.25,300c-10.36,0-18.75,8.39-18.75,18.75v18.75h-225v-18.75c0-10.36-8.39-18.75-18.75-18.75S75,308.39,75,318.75v37.5
		C75,366.61,83.39,375,93.75,375h262.5c10.36,0,18.75-8.39,18.75-18.75v-37.5C375,308.39,366.61,300,356.25,300z"/>
	<path d="M139.12,225l75,52.88c3.19,2.22,6.99,3.4,10.88,3.38c4.06,0,8-1.32,11.25-3.75l75-56.25c8.28-6.21,9.96-17.97,3.75-26.25
		s-17.97-9.96-26.25-3.75l-45.01,33.89c0-0.05,0.01-0.09,0.01-0.14V75c0-10.36-8.39-18.75-18.75-18.75S206.25,64.64,206.25,75v150
		c0,0.4,0.04,0.79,0.06,1.19l-45.44-31.75c-0.04-0.03-0.09-0.06-0.13-0.1c-8.48-5.94-20.17-3.89-26.12,4.6
		C128.7,207.38,130.71,219.03,139.12,225z"/>
</g>
</svg>
