<?xml version="1.0" encoding="utf-8"?>
<!-- Generator: Adobe Illustrator 15.1.0, SVG Export Plug-In . SVG Version: 6.00 Build 0)  -->
<!DOCTYPE svg PUBLIC "-//W3C//DTD SVG 1.1//EN" "http://www.w3.org/Graphics/SVG/1.1/DTD/svg11.dtd">
<svg version="1.1" id="レイヤー_1" xmlns="http://www.w3.org/2000/svg" xmlns:xlink="http://www.w3.org/1999/xlink" x="0px"
	 y="0px" width="450px" height="450px" viewBox="0 0 450 450" style="enable-background:new 0 0 450 450;" xml:space="preserve">
<g>
	<path d="M423,305.62L279.19,67.12c-19.13-29.93-58.9-38.68-88.83-19.55c-7.86,5.02-14.53,11.69-19.55,19.55L27,305.62
		c-10.34,17.24-10.7,38.68-0.94,56.25c11.29,19.78,32.35,31.96,55.12,31.88h287.62c22.62,0.24,43.65-11.63,55.12-31.12
		C433.99,344.86,433.63,323.05,423,305.62z M391.12,344.06c-4.59,7.89-13.19,12.59-22.31,12.19H81.19
		c-9.12,0.4-17.72-4.29-22.31-12.19c-3.35-5.8-3.35-12.95,0-18.75l144-238.69c9.25-12.22,26.66-14.63,38.88-5.38
		c2.03,1.54,3.84,3.35,5.38,5.38l143.81,238.5C394.42,330.94,394.49,338.18,391.12,344.06z"/>
	<circle cx="225" cy="300" r="18.75"/>
	<path d="M225,150c-10.36,0-18.75,8.39-18.75,18.75v75c0,10.36,8.39,18.75,18.75,18.75s18.75-8.39,18.75-18.75v-75
		C243.75,158.39,235.36,150,225,150z"/>
</g>
</svg>
